<?xml version="1.0" standalone="no"?> <!DOCTYPE svg PUBLIC "-//W3C//DTD SVG 20010904//EN" "http://www.w3.org/TR/2001/REC-SVG-20010904/DTD/svg10.dtd"> <svg version="1.0" xmlns="http://www.w3.org/2000/svg" width="600.000000pt" height="314.000000pt" viewBox="0 0 600.000000 314.000000" preserveAspectRatio="xMidYMid meet"> <g transform="translate(0.000000,314.000000) scale(0.066667,-0.066667)" fill="#063137" stroke="none"> <path d="M5569 3254 c-37 -11 -61 -35 -96 -97 -60 -108 -64 -109 -320 -127 -260 -19 -322 -36 -351 -97 -29 -59 -43 -181 -19 -167 9 6 17 24 17 39 0 130 63 161 365 178 270 14 292 23 351 141 41 83 75 94 282 92 161 -1 191 -14 240 -111 53 -105 142 -142 142 -59 0 31 5 32 86 22 107 -14 109 -15 109 -69 0 -38 7 -46 46 -54 78 -16 82 -37 82 -466 0 -500 45 -447 -401 -469 -436 -21 -453 -13 -364 178 62 134 41 168 -36 58 -69 -99 -152 -174 -152 -138 0 43 30 94 132 222 181 228 253 395 165 382 -46 -6 -141 -145 -254 -367 -51 -101 -115 -205 -143 -232 -58 -57 -62 -50 -19 35 27 51 29 67 14 95 -15 28 -14 41 6 69 34 49 30 73 -12 73 -47 0 -105 -77 -95 -127 5 -28 -8 -50 -53 -93 -63 -61 -68 -44 -17 58 53 102 -2 97 -74 -8 -120 -174 -162 -183 -70 -16 66 121 63 134 -23 103 -81 -28 -97 -27 -97 9 0 59 -76 115 -173 127 l-88 11 70 34 c215 104 265 190 135 233 -189 63 -754 -85 -715 -187 12 -31 51 -31 51 -1 0 76 605 201 669 138 21 -21 -57 -84 -179 -145 -138 -69 -146 -68 -100 6 18 30 29 64 24 78 -13 33 -37 9 -91 -91 -37 -68 -57 -87 -109 -107 -73 -28 -97 -94 -28 -76 77 19 -109 -301 -213 -366 -202 -128 -263 -255 -145 -300 161 -61 810 331 876 529 15 47 46 70 94 71 6 0 -10 -44 -35 -97 -72 -154 -20 -216 85 -102 38 41 52 49 52 30 0 -51 62 -27 136 53 85 91 87 89 36 -23 -60 -132 -6 -182 82 -75 l46 56 0 -48 c0 -74 27 -73 100 5 59 63 66 67 57 33 -33 -131 20 -148 430 -137 507 13 482 -14 484 530 1 407 -5 440 -97 493 -28 15 -44 37 -44 58 0 72 -220 108 -263 43 -32 -49 -45 -41 -91 58 -24 50 -53 86 -78 98 -51 24 -355 34 -419 14z m238 -684 c-42 -79 -152 -241 -152 -222 0 26 167 295 177 285 3 -3 -9 -31 -25 -63z m-894 -204 c48 -25 78 -116 38 -116 -25 0 -95 -31 -88 -38 4 -4 26 -1 47 7 61 23 50 -5 -39 -99 -233 -247 -849 -534 -754 -352 36 70 217 204 213 158 -4 -48 32 -38 49 14 15 45 33 59 155 115 76 35 142 68 146 74 4 5 24 17 45 27 93 43 -30 15 -150 -33 -70 -29 -129 -53 -131 -53 -3 0 29 67 71 149 l74 149 72 10 c39 5 78 12 87 15 22 8 131 -9 165 -27z"/> <path d="M3203 2904 c-435 -138 -1001 -786 -833 -954 78 -78 295 20 620 282 65 52 113 86 106 75 -115 -195 -212 -327 -330 -449 -181 -185 -313 -451 -245 -493 49 -31 154 106 350 453 97 171 129 215 194 264 131 99 181 116 146 50 -47 -87 2 -131 81 -71 l51 39 5 -34 c7 -47 46 -49 100 -3 l47 40 0 -39 c0 -42 27 -51 58 -20 15 15 22 13 34 -8 24 -42 60 -30 137 45 40 39 68 60 63 45 -25 -65 42 -140 76 -85 7 11 19 8 36 -7 27 -25 72 -6 116 46 13 17 18 14 26 -17 13 -50 54 -50 54 0 0 21 17 72 38 114 37 72 38 77 13 104 -46 51 -83 35 -196 -83 -125 -132 -126 -132 -108 -51 18 79 28 98 135 256 132 195 171 297 112 297 -42 0 -151 -165 -218 -331 -32 -79 -37 -83 -79 -77 -40 6 -57 -5 -149 -104 -113 -122 -121 -123 -65 -11 36 71 37 78 15 112 -36 55 -58 46 -198 -84 -148 -138 -163 -141 -97 -15 67 129 56 161 -27 79 -52 -51 -226 -174 -226 -159 0 5 44 79 98 163 53 84 97 160 97 169 0 43 -39 28 -120 -47 -176 -163 -606 -422 -682 -412 -129 18 86 368 373 608 267 222 570 351 538 228 -22 -86 -336 -348 -443 -369 -22 -5 -41 -19 -41 -31 0 -85 395 173 495 323 88 133 9 215 -157 162z m353 -652 c-8 -15 -45 -61 -82 -101 -71 -77 -91 -67 -38 18 48 78 158 154 120 83z m548 -5 c-39 -55 -147 -164 -156 -155 -14 14 73 129 121 159 61 36 63 36 35 -4z m-370 -96 c-44 -44 -82 -78 -85 -75 -13 13 43 98 96 144 89 78 80 24 -11 -69z m-930 -332 c-87 -144 -228 -350 -234 -344 -15 15 116 244 183 321 82 93 97 100 51 23z"/> <path d="M5663 2867 c-150 -49 -318 -283 -251 -350 10 -10 18 1 26 35 59 276 365 372 561 175 128 -129 130 -331 4 -466 -31 -32 -33 -41 -14 -41 61 0 145 132 157 247 26 258 -241 479 -483 400z"/> <path d="M3355 2450 c-5 -5 -10 -22 -10 -38 0 -31 30 -36 57 -9 27 27 22 57 -9 57 -16 0 -32 -4 -38 -10z"/> <path d="M5784 2420 c-14 -36 14 -59 43 -36 13 11 23 29 23 40 0 30 -55 26 -66 -4z"/> </g> </svg>